<svg xmlns="http://www.w3.org/2000/svg" xmlns:xlink="http://www.w3.org/1999/xlink" xmlns:lucid="lucid" width="2893.82" height="1360"><g transform="translate(0 0)" lucid:page-tab-id="0_0"><path d="M0 0h2893.82v1360H0z" fill="#fff"/><path d="M600 488c0-4.42 3.58-8 8-8h304c4.42 0 8 3.58 8 8v764c0 4.42-3.58 8-8 8H608c-4.42 0-8-3.58-8-8z" stroke="#333" stroke-width="2" fill-opacity="0"/><use xlink:href="#a" transform="matrix(1,0,0,1,608,488) translate(96.525 15.6)"/><use xlink:href="#b" transform="matrix(1,0,0,1,608,488) translate(165.47500000000002 15.6)"/><path d="M620 768c0-4.42 3.58-8 8-8h264c4.42 0 8 3.58 8 8v404c0 4.42-3.58 8-8 8H628c-4.42 0-8-3.58-8-8z" stroke="#333" stroke-width="2" fill-opacity="0"/><use xlink:href="#c" transform="matrix(1,0,0,1,628,768) translate(32.82499999999999 15.6)"/><use xlink:href="#d" transform="matrix(1,0,0,1,628,768) translate(101.725 15.6)"/><use xlink:href="#e" transform="matrix(1,0,0,1,628,768) translate(142.375 15.6)"/><path d="M560 68c0-4.42 3.58-8 8-8h1044c4.42 0 8 3.58 8 8v244c0 4.42-3.58 8-8 8H568c-4.42 0-8-3.58-8-8z" stroke="#333" stroke-width="2" fill-opacity="0"/><use xlink:href="#f" transform="matrix(1,0,0,1,568,68) translate(498.5 15.6)"/><path d="M980 488c0-4.42 3.58-8 8-8h304c4.42 0 8 3.58 8 8v244c0 4.42-3.58 8-8 8H988c-4.42 0-8-3.58-8-8z" stroke="#333" stroke-width="2" fill-opacity="0"/><use xlink:href="#g" transform="matrix(1,0,0,1,988,488) translate(77.625 15.6)"/><use xlink:href="#h" transform="matrix(1,0,0,1,988,488) translate(133.47500000000002 15.6)"/><path d="M1420 488c0-4.42 3.58-8 8-8h304c4.42 0 8 3.58 8 8v764c0 4.42-3.58 8-8 8h-304c-4.42 0-8-3.58-8-8z" stroke="#333" stroke-width="2" fill-opacity="0"/><use xlink:href="#i" transform="matrix(1,0,0,1,1428,488) translate(100 15.6)"/><use xlink:href="#b" transform="matrix(1,0,0,1,1428,488) translate(162 15.6)"/><path d="M1900 488c0-4.42 3.58-8 8-8h304c4.42 0 8 3.58 8 8v764c0 4.42-3.58 8-8 8h-304c-4.42 0-8-3.58-8-8z" stroke="#333" stroke-width="2" fill-opacity="0"/><use xlink:href="#j" transform="matrix(1,0,0,1,1908,488) translate(92.05 15.6)"/><use xlink:href="#b" transform="matrix(1,0,0,1,1908,488) translate(169.95 15.6)"/><path d="M560 448c0-4.42 3.58-8 8-8h2144c4.42 0 8 3.58 8 8v884c0 4.42-3.58 8-8 8H568c-4.42 0-8-3.58-8-8z" stroke="#834187" stroke-width="3" fill-opacity="0"/><use xlink:href="#k" transform="matrix(1,0,0,1,568,448) translate(1044.5 15.6)"/><path d="M2320 488c0-4.42 3.58-8 8-8h304c4.42 0 8 3.58 8 8v764c0 4.42-3.58 8-8 8h-304c-4.42 0-8-3.58-8-8z" stroke="#333" stroke-width="2" fill-opacity="0"/><use xlink:href="#l" transform="matrix(1,0,0,1,2328,488) translate(81.9 15.6)"/><use xlink:href="#b" transform="matrix(1,0,0,1,2328,488) translate(180.10000000000002 15.6)"/><path d="M239.75 862.13c0 10.9-8.84 19.75-19.75 19.75-10.9 0-19.75-8.84-19.75-19.75 0-10.9 8.84-19.75 19.75-19.75 10.9 0 19.75 8.85 19.75 19.75z" stroke="#333" stroke-width="2" fill="#fff"/><path d="M220 881.88v47.3c0 4.42 1.92 11.03 4.28 14.76l35.72 56.44m-40-63.2l-40 63.2m0-98.75h80" stroke="#333" stroke-width="2" fill="none"/><path d="M180 850.38c0-4.4 3.58-8 8-8h64c4.42 0 8 3.6 8 8v164c0 4.42-3.58 8-8 8h-64c-4.42 0-8-3.58-8-8z" fill="none"/><use xlink:href="#m" transform="matrix(1,0,0,1,100,1000.384787788614) translate(101.05 14.6)"/><path d="M840 580c0 33.14-35.82 60-80 60s-80-26.86-80-60 35.82-60 80-60 80 26.86 80 60z" stroke="#333" fill="#fff"/><use xlink:href="#n" transform="matrix(1,0,0,1,680,520) translate(22.10499999999999 63.15)"/><path d="M260.5 901.27H388c6.63 0 12-5.37 12-12V592c0-6.63 5.37-12 12-12h266.6" stroke="#333" fill="none"/><path d="M260.5 901.77h-.5v-1h.5" fill="#333"/><path d="M661.3 590.18L678.52 580l-17.22-10.18" stroke="#333" fill="none"/><path d="M840 890c0 33.14-35.82 60-80 60s-80-26.86-80-60 35.82-60 80-60 80 26.86 80 60z" stroke="#333" fill="#fff"/><use xlink:href="#o" transform="matrix(1,0,0,1,680,830) translate(32.105 51.9)"/><use xlink:href="#p" transform="matrix(1,0,0,1,680,830) translate(58.529999999999994 73.5)"/><path d="M840 1040c0 33.14-35.82 60-80 60s-80-26.86-80-60 35.82-60 80-60 80 26.86 80 60z" stroke="#333" fill="#fff"/><use xlink:href="#q" transform="matrix(1,0,0,1,680,980) translate(13.029999999999996 63.15)"/><use xlink:href="#r" transform="matrix(1,0,0,1,680,980) translate(50.029999999999994 63.15)"/><path d="M840 200c0 33.14-35.82 60-80 60s-80-26.86-80-60 35.82-60 80-60 80 26.86 80 60z" stroke="#333" fill="#fff"/><use xlink:href="#s" transform="matrix(1,0,0,1,680,140) translate(46.57999999999999 63.15)"/><path d="M1060 200c0 33.14-35.82 60-80 60s-80-26.86-80-60 35.82-60 80-60 80 26.86 80 60z" stroke="#333" fill="#fff"/><use xlink:href="#t" transform="matrix(1,0,0,1,900,140) translate(58.029999999999994 63.15)"/><path d="M1460 200c0 33.14-35.82 60-80 60s-80-26.86-80-60 35.82-60 80-60 80 26.86 80 60z" stroke="#333" fill="#fff"/><use xlink:href="#u" transform="matrix(1,0,0,1,1300,140) translate(30.029999999999994 63.15)"/><path d="M760 519V261.4" stroke="#333" fill="none"/><path d="M760.5 519.52l-.5-.02h-.5v-.5h1" fill="#333"/><path d="M770.18 278.7L760 261.48l-10.18 17.22M760 519V402c0-6.63 5.37-12 12-12h196c6.63 0 12-5.37 12-12V261.4" stroke="#333" fill="none"/><path d="M760.5 519.52l-.5-.02h-.5v-.5h1" fill="#333"/><path d="M990.18 278.7L980 261.48l-10.18 17.22M760 139v-27.5c0-6.63 5.37-12 12-12h603.64c6.62 0 12 5.37 12 12v27.38" stroke="#333" fill="none"/><path d="M760.5 139.52l-.5-.02h-.5v-.5h1" fill="#333"/><path d="M1377.46 121.6l10.18 17.2 10.18-17.2" stroke="#333" fill="none"/><path d="M980 139v-27.5c0-6.63 5.37-12 12-12h383.64c6.62 0 12 5.37 12 12v27.38" stroke="#333" fill="none"/><path d="M980.5 139.52l-.5-.02h-.5v-.5h1" fill="#333"/><path d="M1377.46 121.6l10.18 17.2 10.18-17.2M1380 261v327c0 6.63-5.37 12-12 12h-146.6" stroke="#333" fill="none"/><path d="M1380 260.5h.5v.5h-1v-.52" fill="#333"/><path d="M1238.7 589.82L1221.48 600l17.22 10.18M222.5 935.7h216.25c6.63 0 12 5.36 12 12v80.3c0 6.63 5.37 12 12 12H679M222.5 935.7H219" stroke="#333" fill="none"/><path d="M679.5 1040v.5h-.5v-1h.52" fill="#333"/><path d="M222.5 935.7h216.25c6.63 0 12-5.4 12-12V902c0-6.63 5.37-12 12-12H679M222.5 935.7H219" stroke="#333" fill="none"/><path d="M679.5 890v.5h-.5v-1h.52" fill="#333"/><path d="M1220 600c0 33.14-35.82 60-80 60s-80-26.86-80-60 35.82-60 80-60 80 26.86 80 60z" stroke="#333" fill="#fff"/><use xlink:href="#v" transform="matrix(1,0,0,1,1060,540) translate(30.029999999999994 51.9)"/><use xlink:href="#w" transform="matrix(1,0,0,1,1060,540) translate(26.129999999999995 73.5)"/><use xlink:href="#x" transform="matrix(1,0,0,1,1060,540) translate(79.97999999999999 73.5)"/><path d="M1220 600c0 33.14-35.82 60-80 60s-80-26.86-80-60 35.82-60 80-60 80 26.86 80 60z" stroke="#333" fill="#fff"/><use xlink:href="#v" transform="matrix(1,0,0,1,1060,540) translate(30.029999999999994 51.9)"/><use xlink:href="#w" transform="matrix(1,0,0,1,1060,540) translate(26.129999999999995 73.5)"/><use xlink:href="#x" transform="matrix(1,0,0,1,1060,540) translate(79.97999999999999 73.5)"/><path d="M1680 600c0 33.14-35.82 60-80 60s-80-26.86-80-60 35.82-60 80-60 80 26.86 80 60z" stroke="#333" fill="#fff"/><use xlink:href="#y" transform="matrix(1,0,0,1,1520,540) translate(20.554999999999986 51.9)"/><use xlink:href="#z" transform="matrix(1,0,0,1,1520,540) translate(76.505 51.9)"/><use xlink:href="#A" transform="matrix(1,0,0,1,1520,540) translate(65.53 73.5)"/><path d="M1380 261v327c0 6.63 5.37 12 12 12h126.6" stroke="#333" fill="none"/><path d="M1380 260.5h.5v.5h-1v-.52" fill="#333"/><path d="M1501.3 610.18l17.22-10.18-17.22-10.18" stroke="#333" fill="none"/><path d="M1680 880c0 33.14-35.82 60-80 60s-80-26.86-80-60 35.82-60 80-60 80 26.86 80 60z" stroke="#333" fill="#fff"/><use xlink:href="#B" transform="matrix(1,0,0,1,1520,820) translate(16.529999999999994 63.15)"/><use xlink:href="#C" transform="matrix(1,0,0,1,1520,820) translate(79.53 63.15)"/><path d="M1680 1020c0 33.14-35.82 60-80 60s-80-26.86-80-60 35.82-60 80-60 80 26.86 80 60z" stroke="#333" fill="#fff"/><use xlink:href="#B" transform="matrix(1,0,0,1,1520,960) translate(15.054999999999987 63.15)"/><use xlink:href="#D" transform="matrix(1,0,0,1,1520,960) translate(78.05499999999999 63.15)"/><path d="M1680 740c0 33.14-35.82 60-80 60s-80-26.86-80-60 35.82-60 80-60 80 26.86 80 60z" stroke="#333" fill="#fff"/><use xlink:href="#E" transform="matrix(1,0,0,1,1520,680) translate(46.504999999999995 51.9)"/><use xlink:href="#F" transform="matrix(1,0,0,1,1520,680) translate(41.504999999999995 73.5)"/><path d="M1380 261v467c0 6.63 5.37 12 12 12h126.6" stroke="#333" fill="none"/><path d="M1380 260.5h.5v.5h-1v-.52" fill="#333"/><path d="M1501.3 750.18l17.22-10.18-17.22-10.18M1380 261v607c0 6.63 5.37 12 12 12h126.6" stroke="#333" fill="none"/><path d="M1380 260.5h.5v.5h-1v-.52" fill="#333"/><path d="M1501.3 890.18l17.22-10.18-17.22-10.18M1380 261v747c0 6.63 5.37 12 12 12h126.6" stroke="#333" fill="none"/><path d="M1380 260.5h.5v.5h-1v-.52" fill="#333"/><path d="M1501.3 1030.18l17.22-10.18-17.22-10.18" stroke="#333" fill="none"/><path d="M2160 1160c0 33.14-35.82 60-80 60s-80-26.86-80-60 35.82-60 80-60 80 26.86 80 60z" stroke="#333" fill="#fff"/><use xlink:href="#G" transform="matrix(1,0,0,1,2000,1100) translate(25.055 63.15)"/><use xlink:href="#H" transform="matrix(1,0,0,1,2000,1100) translate(62.055 63.15)"/><path d="M2160 1020c0 33.14-35.82 60-80 60s-80-26.86-80-60 35.82-60 80-60 80 26.86 80 60z" stroke="#333" fill="#fff"/><use xlink:href="#I" transform="matrix(1,0,0,1,2000,960) translate(14.604999999999999 63.15)"/><use xlink:href="#H" transform="matrix(1,0,0,1,2000,960) translate(72.50500000000001 63.15)"/><path d="M1680 1160c0 33.14-35.82 60-80 60s-80-26.86-80-60 35.82-60 80-60 80 26.86 80 60z" stroke="#333" fill="#fff"/><use xlink:href="#J" transform="matrix(1,0,0,1,1520,1100) translate(16.07999999999999 63.15)"/><use xlink:href="#K" transform="matrix(1,0,0,1,1520,1100) translate(74.98 63.15)"/><path d="M1380 261v887c0 6.63 5.37 12 12 12h126.6" stroke="#333" fill="none"/><path d="M1380 260.5h.5v.5h-1v-.52" fill="#333"/><path d="M1501.3 1170.18l17.22-10.18-17.22-10.18M1681 1160h317.6" stroke="#333" fill="none"/><path d="M1681 1160.5h-.52l.02-.5v-.5h.5" fill="#333"/><path d="M1981.3 1170.18l17.22-10.18-17.22-10.18" stroke="#333" fill="none"/><path d="M2160 880c0 33.14-35.82 60-80 60s-80-26.86-80-60 35.82-60 80-60 80 26.86 80 60z" stroke="#333" fill="#fff"/><use xlink:href="#L" transform="matrix(1,0,0,1,2000,820) translate(51.004999999999995 51.9)"/><use xlink:href="#M" transform="matrix(1,0,0,1,2000,820) translate(24.45499999999999 73.5)"/><use xlink:href="#N" transform="matrix(1,0,0,1,2000,820) translate(113.655 73.5)"/><path d="M1681 1020h147c6.63 0 12-5.37 12-12V892c0-6.63 5.37-12 12-12h146.6" stroke="#333" fill="none"/><path d="M1681 1020.5h-.52l.02-.5v-.5h.5" fill="#333"/><path d="M1981.3 890.18l17.22-10.18-17.22-10.18M1681 880h317.6" stroke="#333" fill="none"/><path d="M1681 880.5h-.52l.02-.5v-.5h.5" fill="#333"/><path d="M1981.3 890.18l17.22-10.18-17.22-10.18" stroke="#333" fill="none"/><path d="M1681 740h147c6.63 0 12 5.37 12 12v116c0 6.63 5.37 12 12 12h146.6" stroke="#333" fill="none"/><path d="M1681 740.5h-.52l.02-.5v-.5h.5" fill="#333"/><path d="M1981.3 890.18l17.22-10.18-17.22-10.18" stroke="#333" fill="none"/><path d="M2560 600c0 33.14-35.82 60-80 60s-80-26.86-80-60 35.82-60 80-60 80 26.86 80 60z" stroke="#333" fill="#fff"/><use xlink:href="#G" transform="matrix(1,0,0,1,2400,540) translate(17.555 63.15)"/><use xlink:href="#O" transform="matrix(1,0,0,1,2400,540) translate(54.555 63.15)"/><path d="M2560 740c0 33.14-35.82 60-80 60s-80-26.86-80-60 35.82-60 80-60 80 26.86 80 60z" stroke="#333" fill="#fff"/><use xlink:href="#P" transform="matrix(1,0,0,1,2400,680) translate(53.55499999999999 51.9)"/><use xlink:href="#O" transform="matrix(1,0,0,1,2400,680) translate(36.05499999999999 73.5)"/><path d="M2560 880c0 33.14-35.82 60-80 60s-80-26.86-80-60 35.82-60 80-60 80 26.86 80 60z" stroke="#333" fill="#fff"/><use xlink:href="#Q" transform="matrix(1,0,0,1,2400,820) translate(54.05499999999999 51.9)"/><use xlink:href="#O" transform="matrix(1,0,0,1,2400,820) translate(36.05499999999999 73.5)"/><path d="M2560 1020c0 33.14-35.82 60-80 60s-80-26.86-80-60 35.82-60 80-60 80 26.86 80 60z" stroke="#333" fill="#fff"/><use xlink:href="#R" transform="matrix(1,0,0,1,2400,960) translate(34.004999999999995 51.9)"/><use xlink:href="#x" transform="matrix(1,0,0,1,2400,960) translate(53.05499999999999 73.5)"/><path d="M2560 1160c0 33.14-35.82 60-80 60s-80-26.86-80-60 35.82-60 80-60 80 26.86 80 60z" stroke="#333" fill="#fff"/><use xlink:href="#S" transform="matrix(1,0,0,1,2400,1100) translate(15.454999999999993 63.15)"/><use xlink:href="#N" transform="matrix(1,0,0,1,2400,1100) translate(122.655 63.15)"/><path d="M2080 1221v68c0 6.63-5.37 12-12 12h-476c-6.63 0-12-5.37-12-12v-27.1" stroke="#333" fill="none"/><path d="M2080 1220.5h.5v.5h-1v-.52" fill="#333"/><path d="M1590.18 1279.2l-10.18-17.22-10.18 17.22M1681 1020h317.6" stroke="#333" fill="none"/><path d="M1681 1020.5h-.52l.02-.5v-.5h.5" fill="#333"/><path d="M1981.3 1030.18l17.22-10.18-17.22-10.18" stroke="#333" fill="none"/><path d="M1681 880h147c6.63 0 12 5.37 12 12v116c0 6.63 5.37 12 12 12h146.6" stroke="#333" fill="none"/><path d="M1681 880.5h-.52l.02-.5v-.5h.5" fill="#333"/><path d="M1981.3 1030.18l17.22-10.18-17.22-10.18" stroke="#333" fill="none"/><path d="M1681 740h147c6.63 0 12 5.37 12 12v256c0 6.63 5.37 12 12 12h146.6" stroke="#333" fill="none"/><path d="M1681 740.5h-.52l.02-.5v-.5h.5" fill="#333"/><path d="M1981.3 1030.18l17.22-10.18-17.22-10.18M2161 880h107c6.63 0 12-5.37 12-12V612c0-6.63 5.37-12 12-12h106.6" stroke="#333" fill="none"/><path d="M2161 880.5h-.52l.02-.5v-.5h.5" fill="#333"/><path d="M2381.3 610.18l17.22-10.18-17.22-10.18M2161 880h107c6.63 0 12-5.37 12-12V752c0-6.63 5.37-12 12-12h106.6" stroke="#333" fill="none"/><path d="M2161 880.5h-.52l.02-.5v-.5h.5" fill="#333"/><path d="M2381.3 750.18l17.22-10.18-17.22-10.18M2161 880h237.6" stroke="#333" fill="none"/><path d="M2161 880.5h-.52l.02-.5v-.5h.5" fill="#333"/><path d="M2381.3 890.18l17.22-10.18-17.22-10.18M2480 1099v-17.6" stroke="#333" fill="none"/><path d="M2480.5 1099.52l-.5-.02h-.5v-.5h1" fill="#333"/><path d="M2490.18 1098.7l-10.18-17.22-10.18 17.22M2161 880h107c6.63 0 12 5.37 12 12v256c0 6.63 5.37 12 12 12h106.6" stroke="#333" fill="none"/><path d="M2161 880.5h-.52l.02-.5v-.5h.5" fill="#333"/><path d="M2381.3 1170.18l17.22-10.18-17.22-10.18" stroke="#333" fill="none"/><defs><path fill="#333" d="M30 0v-248h33v221h125V0H30" id="T"/><path fill="#333" d="M141-36C126-15 110 5 73 4 37 3 15-17 15-53c-1-64 63-63 125-63 3-35-9-54-41-54-24 1-41 7-42 31l-33-3c5-37 33-52 76-52 45 0 72 20 72 64v82c-1 20 7 32 28 27v20c-31 9-61-2-59-35zM48-53c0 20 12 33 32 33 41-3 63-29 60-74-43 2-92-5-92 41" id="U"/><path fill="#333" d="M117-194c89-4 53 116 60 194h-32v-121c0-31-8-49-39-48C34-167 62-67 57 0H25l-1-190h30c1 10-1 24 2 32 11-22 29-35 61-36" id="V"/><path fill="#333" d="M85-194c31 0 48 13 60 33l-1-100h32l1 261h-30c-2-10 0-23-3-31C134-8 116 4 85 4 32 4 16-35 15-94c0-66 23-100 70-100zm9 24c-40 0-46 34-46 75 0 40 6 74 45 74 42 0 51-32 51-76 0-42-9-74-50-73" id="W"/><path fill="#333" d="M24-231v-30h32v30H24zM24 0v-190h32V0H24" id="X"/><path fill="#333" d="M177-190C167-65 218 103 67 71c-23-6-38-20-44-43l32-5c15 47 100 32 89-28v-30C133-14 115 1 83 1 29 1 15-40 15-95c0-56 16-97 71-98 29-1 48 16 59 35 1-10 0-23 2-32h30zM94-22c36 0 50-32 50-73 0-42-14-75-50-75-39 0-46 34-46 75s6 73 46 73" id="Y"/><g id="a"><use transform="matrix(0.05,0,0,0.05,0,0)" xlink:href="#T"/><use transform="matrix(0.05,0,0,0.05,10,0)" xlink:href="#U"/><use transform="matrix(0.05,0,0,0.05,20,0)" xlink:href="#V"/><use transform="matrix(0.05,0,0,0.05,30,0)" xlink:href="#W"/><use transform="matrix(0.05,0,0,0.05,40,0)" xlink:href="#X"/><use transform="matrix(0.05,0,0,0.05,43.95,0)" xlink:href="#V"/><use transform="matrix(0.05,0,0,0.05,53.95,0)" xlink:href="#Y"/></g><path fill="#333" d="M30-248c87 1 191-15 191 75 0 78-77 80-158 76V0H30v-248zm33 125c57 0 124 11 124-50 0-59-68-47-124-48v98" id="Z"/><path fill="#333" d="M100-194c63 0 86 42 84 106H49c0 40 14 67 53 68 26 1 43-12 49-29l28 8c-11 28-37 45-77 45C44 4 14-33 15-96c1-61 26-98 85-98zm52 81c6-60-76-77-97-28-3 7-6 17-6 28h103" id="aa"/><g id="b"><use transform="matrix(0.05,0,0,0.05,0,0)" xlink:href="#Z"/><use transform="matrix(0.05,0,0,0.05,12,0)" xlink:href="#U"/><use transform="matrix(0.05,0,0,0.05,22,0)" xlink:href="#Y"/><use transform="matrix(0.05,0,0,0.05,32,0)" xlink:href="#aa"/></g><path fill="#333" d="M143 4C61 4 22-44 18-125c-5-107 100-154 193-111 17 8 29 25 37 43l-32 9c-13-25-37-40-76-40-61 0-88 39-88 99 0 61 29 100 91 101 35 0 62-11 79-27v-45h-74v-28h105v86C228-13 192 4 143 4" id="ab"/><path fill="#333" d="M114-163C36-179 61-72 57 0H25l-1-190h30c1 12-1 29 2 39 6-27 23-49 58-41v29" id="ac"/><path fill="#333" d="M24 0v-261h32V0H24" id="ad"/><g id="c"><use transform="matrix(0.05,0,0,0.05,0,0)" xlink:href="#ab"/><use transform="matrix(0.05,0,0,0.05,14,0)" xlink:href="#aa"/><use transform="matrix(0.05,0,0,0.05,24,0)" xlink:href="#V"/><use transform="matrix(0.05,0,0,0.05,34,0)" xlink:href="#aa"/><use transform="matrix(0.05,0,0,0.05,44,0)" xlink:href="#ac"/><use transform="matrix(0.05,0,0,0.05,49.95,0)" xlink:href="#U"/><use transform="matrix(0.05,0,0,0.05,59.95,0)" xlink:href="#ad"/></g><path fill="#333" d="M205 0l-28-72H64L36 0H1l101-248h38L239 0h-34zm-38-99l-47-123c-12 45-31 82-46 123h93" id="ae"/><g id="d"><use transform="matrix(0.05,0,0,0.05,0,0)" xlink:href="#ae"/><use transform="matrix(0.05,0,0,0.05,12,0)" xlink:href="#Z"/><use transform="matrix(0.05,0,0,0.05,24,0)" xlink:href="#Z"/></g><path fill="#333" d="M101-234c-31-9-42 10-38 44h38v23H63V0H32v-167H5v-23h27c-7-52 17-82 69-68v24" id="af"/><path fill="#333" d="M100-194c62-1 85 37 85 99 1 63-27 99-86 99S16-35 15-95c0-66 28-99 85-99zM99-20c44 1 53-31 53-75 0-43-8-75-51-75s-53 32-53 75 10 74 51 75" id="ag"/><path fill="#333" d="M210-169c-67 3-38 105-44 169h-31v-121c0-29-5-50-35-48C34-165 62-65 56 0H25l-1-190h30c1 10-1 24 2 32 10-44 99-50 107 0 11-21 27-35 58-36 85-2 47 119 55 194h-31v-121c0-29-5-49-35-48" id="ah"/><path fill="#333" d="M59-47c-2 24 18 29 38 22v24C64 9 27 4 27-40v-127H5v-23h24l9-43h21v43h35v23H59v120" id="ai"/><g id="e"><use transform="matrix(0.05,0,0,0.05,0,0)" xlink:href="#X"/><use transform="matrix(0.05,0,0,0.05,3.95,0)" xlink:href="#V"/><use transform="matrix(0.05,0,0,0.05,13.949999999999998,0)" xlink:href="#af"/><use transform="matrix(0.05,0,0,0.05,18.95,0)" xlink:href="#ag"/><use transform="matrix(0.05,0,0,0.05,28.950000000000003,0)" xlink:href="#ac"/><use transform="matrix(0.05,0,0,0.05,34.9,0)" xlink:href="#ah"/><use transform="matrix(0.05,0,0,0.05,49.85,0)" xlink:href="#U"/><use transform="matrix(0.05,0,0,0.05,59.85,0)" xlink:href="#ai"/><use transform="matrix(0.05,0,0,0.05,64.85,0)" xlink:href="#X"/><use transform="matrix(0.05,0,0,0.05,68.8,0)" xlink:href="#ag"/><use transform="matrix(0.05,0,0,0.05,78.8,0)" xlink:href="#V"/></g><path fill="#333" d="M84 4C-5 8 30-112 23-190h32v120c0 31 7 50 39 49 72-2 45-101 50-169h31l1 190h-30c-1-10 1-25-2-33-11 22-28 36-60 37" id="aj"/><path fill="#333" d="M106-169C34-169 62-67 57 0H25v-261h32l-1 103c12-21 28-36 61-36 89 0 53 116 60 194h-32v-121c2-32-8-49-39-48" id="ak"/><path fill="#333" d="M101-251c68 0 85 55 85 127S166 4 100 4C33 4 14-52 14-124c0-73 17-127 87-127zm-1 229c47 0 54-49 54-102s-4-102-53-102c-51 0-55 48-55 102 0 53 5 102 54 102" id="al"/><g id="f"><use transform="matrix(0.05,0,0,0.05,0,0)" xlink:href="#ae"/><use transform="matrix(0.05,0,0,0.05,12,0)" xlink:href="#aj"/><use transform="matrix(0.05,0,0,0.05,22,0)" xlink:href="#ai"/><use transform="matrix(0.05,0,0,0.05,27,0)" xlink:href="#ak"/><use transform="matrix(0.05,0,0,0.05,37,0)" xlink:href="#al"/></g><g id="g"><use transform="matrix(0.05,0,0,0.05,0,0)" xlink:href="#Z"/><use transform="matrix(0.05,0,0,0.05,12,0)" xlink:href="#ac"/><use transform="matrix(0.05,0,0,0.05,17.95,0)" xlink:href="#ag"/><use transform="matrix(0.05,0,0,0.05,27.950000000000003,0)" xlink:href="#af"/><use transform="matrix(0.05,0,0,0.05,32.95,0)" xlink:href="#X"/><use transform="matrix(0.05,0,0,0.05,36.900000000000006,0)" xlink:href="#ad"/><use transform="matrix(0.05,0,0,0.05,40.85000000000001,0)" xlink:href="#aa"/></g><path fill="#333" d="M212-179c-10-28-35-45-73-45-59 0-87 40-87 99 0 60 29 101 89 101 43 0 62-24 78-52l27 14C228-24 195 4 139 4 59 4 22-46 18-125c-6-104 99-153 187-111 19 9 31 26 39 46" id="am"/><path fill="#333" d="M115-194c55 1 70 41 70 98S169 2 115 4C84 4 66-9 55-30l1 105H24l-1-265h31l2 30c10-21 28-34 59-34zm-8 174c40 0 45-34 45-75s-6-73-45-74c-42 0-51 32-51 76 0 43 10 73 51 73" id="an"/><g id="h"><use transform="matrix(0.05,0,0,0.05,0,0)" xlink:href="#am"/><use transform="matrix(0.05,0,0,0.05,12.950000000000001,0)" xlink:href="#ag"/><use transform="matrix(0.05,0,0,0.05,22.950000000000003,0)" xlink:href="#ah"/><use transform="matrix(0.05,0,0,0.05,37.900000000000006,0)" xlink:href="#an"/><use transform="matrix(0.05,0,0,0.05,47.900000000000006,0)" xlink:href="#ag"/><use transform="matrix(0.05,0,0,0.05,57.900000000000006,0)" xlink:href="#V"/><use transform="matrix(0.05,0,0,0.05,67.9,0)" xlink:href="#aa"/><use transform="matrix(0.05,0,0,0.05,77.9,0)" xlink:href="#V"/><use transform="matrix(0.05,0,0,0.05,87.9,0)" xlink:href="#ai"/></g><path fill="#333" d="M160-131c35 5 61 23 61 61C221 17 115-2 30 0v-248c76 3 177-17 177 60 0 33-19 50-47 57zm-97-11c50-1 110 9 110-42 0-47-63-36-110-37v79zm0 115c55-2 124 14 124-45 0-56-70-42-124-44v89" id="ao"/><g id="i"><use transform="matrix(0.05,0,0,0.05,0,0)" xlink:href="#ao"/><use transform="matrix(0.05,0,0,0.05,12,0)" xlink:href="#aj"/><use transform="matrix(0.05,0,0,0.05,22,0)" xlink:href="#W"/><use transform="matrix(0.05,0,0,0.05,32,0)" xlink:href="#Y"/><use transform="matrix(0.05,0,0,0.05,42,0)" xlink:href="#aa"/><use transform="matrix(0.05,0,0,0.05,52,0)" xlink:href="#ai"/></g><path fill="#333" d="M179-190L93 31C79 59 56 82 12 73V49c39 6 53-20 64-50L1-190h34L92-34l54-156h33" id="ap"/><g id="j"><use transform="matrix(0.05,0,0,0.05,0,0)" xlink:href="#am"/><use transform="matrix(0.05,0,0,0.05,12.950000000000001,0)" xlink:href="#U"/><use transform="matrix(0.05,0,0,0.05,22.950000000000003,0)" xlink:href="#ai"/><use transform="matrix(0.05,0,0,0.05,27.950000000000003,0)" xlink:href="#aa"/><use transform="matrix(0.05,0,0,0.05,37.95,0)" xlink:href="#Y"/><use transform="matrix(0.05,0,0,0.05,47.95,0)" xlink:href="#ag"/><use transform="matrix(0.05,0,0,0.05,57.95,0)" xlink:href="#ac"/><use transform="matrix(0.05,0,0,0.05,63.900000000000006,0)" xlink:href="#ap"/></g><path fill="#333" d="M185-189c-5-48-123-54-124 2 14 75 158 14 163 119 3 78-121 87-175 55-17-10-28-26-33-46l33-7c5 56 141 63 141-1 0-78-155-14-162-118-5-82 145-84 179-34 5 7 8 16 11 25" id="aq"/><path fill="#333" d="M108 0H70L1-190h34L89-25l56-165h34" id="ar"/><path fill="#333" d="M140-251c81 0 123 46 123 126C263-46 219 4 140 4 59 4 17-45 17-125s42-126 123-126zm0 227c63 0 89-41 89-101s-29-99-89-99c-61 0-89 39-89 99S79-25 140-24" id="as"/><g id="k"><use transform="matrix(0.05,0,0,0.05,0,0)" xlink:href="#aq"/><use transform="matrix(0.05,0,0,0.05,12,0)" xlink:href="#U"/><use transform="matrix(0.05,0,0,0.05,22,0)" xlink:href="#ar"/><use transform="matrix(0.05,0,0,0.05,31,0)" xlink:href="#aa"/><use transform="matrix(0.05,0,0,0.05,41,0)" xlink:href="#as"/></g><path fill="#333" d="M127-220V0H93v-220H8v-28h204v28h-85" id="at"/><path fill="#333" d="M135-143c-3-34-86-38-87 0 15 53 115 12 119 90S17 21 10-45l28-5c4 36 97 45 98 0-10-56-113-15-118-90-4-57 82-63 122-42 12 7 21 19 24 35" id="au"/><path fill="#333" d="M96-169c-40 0-48 33-48 73s9 75 48 75c24 0 41-14 43-38l32 2c-6 37-31 61-74 61-59 0-76-41-82-99-10-93 101-131 147-64 4 7 5 14 7 22l-32 3c-4-21-16-35-41-35" id="av"/><g id="l"><use transform="matrix(0.05,0,0,0.05,0,0)" xlink:href="#at"/><use transform="matrix(0.05,0,0,0.05,10.3,0)" xlink:href="#ac"/><use transform="matrix(0.05,0,0,0.05,16.25,0)" xlink:href="#U"/><use transform="matrix(0.05,0,0,0.05,26.25,0)" xlink:href="#V"/><use transform="matrix(0.05,0,0,0.05,36.25,0)" xlink:href="#au"/><use transform="matrix(0.05,0,0,0.05,45.25,0)" xlink:href="#U"/><use transform="matrix(0.05,0,0,0.05,55.25,0)" xlink:href="#av"/><use transform="matrix(0.05,0,0,0.05,64.25,0)" xlink:href="#ai"/><use transform="matrix(0.05,0,0,0.05,69.25,0)" xlink:href="#X"/><use transform="matrix(0.05,0,0,0.05,73.2,0)" xlink:href="#ag"/><use transform="matrix(0.05,0,0,0.05,83.2,0)" xlink:href="#V"/></g><path fill="#333" d="M232-93c-1 65-40 97-104 97C67 4 28-28 28-90v-158h33c8 89-33 224 67 224 102 0 64-133 71-224h33v155" id="aw"/><g id="m"><use transform="matrix(0.05,0,0,0.05,0,0)" xlink:href="#aw"/><use transform="matrix(0.05,0,0,0.05,12.950000000000001,0)" xlink:href="#au"/><use transform="matrix(0.05,0,0,0.05,21.950000000000003,0)" xlink:href="#aa"/><use transform="matrix(0.05,0,0,0.05,31.950000000000003,0)" xlink:href="#ac"/></g><path d="M233-177c-1 41-23 64-60 70L243 0h-38l-65-103H63V0H30v-248c88 3 205-21 203 71zM63-129c60-2 137 13 137-47 0-61-80-42-137-45v92" id="ax"/><path d="M100-194c63 0 86 42 84 106H49c0 40 14 67 53 68 26 1 43-12 49-29l28 8c-11 28-37 45-77 45C44 4 14-33 15-96c1-61 26-98 85-98zm52 81c6-60-76-77-97-28-3 7-6 17-6 28h103" id="ay"/><path d="M177-190C167-65 218 103 67 71c-23-6-38-20-44-43l32-5c15 47 100 32 89-28v-30C133-14 115 1 83 1 29 1 15-40 15-95c0-56 16-97 71-98 29-1 48 16 59 35 1-10 0-23 2-32h30zM94-22c36 0 50-32 50-73 0-42-14-75-50-75-39 0-46 34-46 75s6 73 46 73" id="az"/><path d="M24-231v-30h32v30H24zM24 0v-190h32V0H24" id="aA"/><path d="M135-143c-3-34-86-38-87 0 15 53 115 12 119 90S17 21 10-45l28-5c4 36 97 45 98 0-10-56-113-15-118-90-4-57 82-63 122-42 12 7 21 19 24 35" id="aB"/><path d="M59-47c-2 24 18 29 38 22v24C64 9 27 4 27-40v-127H5v-23h24l9-43h21v43h35v23H59v120" id="aC"/><path d="M114-163C36-179 61-72 57 0H25l-1-190h30c1 12-1 29 2 39 6-27 23-49 58-41v29" id="aD"/><path d="M0 4l72-265h28L28 4H0" id="aE"/><path d="M30 0v-248h33v221h125V0H30" id="aF"/><path d="M100-194c62-1 85 37 85 99 1 63-27 99-86 99S16-35 15-95c0-66 28-99 85-99zM99-20c44 1 53-31 53-75 0-43-8-75-51-75s-53 32-53 75 10 74 51 75" id="aG"/><path d="M117-194c89-4 53 116 60 194h-32v-121c0-31-8-49-39-48C34-167 62-67 57 0H25l-1-190h30c1 10-1 24 2 32 11-22 29-35 61-36" id="aH"/><g id="n"><use transform="matrix(0.05,0,0,0.05,0,0)" xlink:href="#ax"/><use transform="matrix(0.05,0,0,0.05,12.950000000000001,0)" xlink:href="#ay"/><use transform="matrix(0.05,0,0,0.05,22.950000000000003,0)" xlink:href="#az"/><use transform="matrix(0.05,0,0,0.05,32.95,0)" xlink:href="#aA"/><use transform="matrix(0.05,0,0,0.05,36.900000000000006,0)" xlink:href="#aB"/><use transform="matrix(0.05,0,0,0.05,45.900000000000006,0)" xlink:href="#aC"/><use transform="matrix(0.05,0,0,0.05,50.900000000000006,0)" xlink:href="#ay"/><use transform="matrix(0.05,0,0,0.05,60.900000000000006,0)" xlink:href="#aD"/><use transform="matrix(0.05,0,0,0.05,66.85000000000001,0)" xlink:href="#aE"/><use transform="matrix(0.05,0,0,0.05,71.85000000000001,0)" xlink:href="#aF"/><use transform="matrix(0.05,0,0,0.05,81.85000000000001,0)" xlink:href="#aG"/><use transform="matrix(0.05,0,0,0.05,91.85000000000001,0)" xlink:href="#az"/><use transform="matrix(0.05,0,0,0.05,101.85000000000001,0)" xlink:href="#aA"/><use transform="matrix(0.05,0,0,0.05,105.80000000000001,0)" xlink:href="#aH"/></g><path d="M30-248c87 1 191-15 191 75 0 78-77 80-158 76V0H30v-248zm33 125c57 0 124 11 124-50 0-59-68-47-124-48v98" id="aI"/><path d="M210-169c-67 3-38 105-44 169h-31v-121c0-29-5-50-35-48C34-165 62-65 56 0H25l-1-190h30c1 10-1 24 2 32 10-44 99-50 107 0 11-21 27-35 58-36 85-2 47 119 55 194h-31v-121c0-29-5-49-35-48" id="aJ"/><path d="M141-36C126-15 110 5 73 4 37 3 15-17 15-53c-1-64 63-63 125-63 3-35-9-54-41-54-24 1-41 7-42 31l-33-3c5-37 33-52 76-52 45 0 72 20 72 64v82c-1 20 7 32 28 27v20c-31 9-61-2-59-35zM48-53c0 20 12 33 32 33 41-3 63-29 60-74-43 2-92-5-92 41" id="aK"/><path d="M24 0v-261h32V0H24" id="aL"/><g id="o"><use transform="matrix(0.05,0,0,0.05,0,0)" xlink:href="#aI"/><use transform="matrix(0.05,0,0,0.05,12,0)" xlink:href="#aD"/><use transform="matrix(0.05,0,0,0.05,17.95,0)" xlink:href="#aG"/><use transform="matrix(0.05,0,0,0.05,27.950000000000003,0)" xlink:href="#aJ"/><use transform="matrix(0.05,0,0,0.05,42.9,0)" xlink:href="#aG"/><use transform="matrix(0.05,0,0,0.05,52.900000000000006,0)" xlink:href="#aC"/><use transform="matrix(0.05,0,0,0.05,57.900000000000006,0)" xlink:href="#aA"/><use transform="matrix(0.05,0,0,0.05,61.85,0)" xlink:href="#aG"/><use transform="matrix(0.05,0,0,0.05,71.85,0)" xlink:href="#aH"/><use transform="matrix(0.05,0,0,0.05,81.85,0)" xlink:href="#aK"/><use transform="matrix(0.05,0,0,0.05,91.85,0)" xlink:href="#aL"/></g><path d="M108 0H70L1-190h34L89-25l56-165h34" id="aM"/><path d="M85-194c31 0 48 13 60 33l-1-100h32l1 261h-30c-2-10 0-23-3-31C134-8 116 4 85 4 32 4 16-35 15-94c0-66 23-100 70-100zm9 24c-40 0-46 34-46 75 0 40 6 74 45 74 42 0 51-32 51-76 0-42-9-74-50-73" id="aN"/><g id="p"><use transform="matrix(0.05,0,0,0.05,0,0)" xlink:href="#aM"/><use transform="matrix(0.05,0,0,0.05,9,0)" xlink:href="#aA"/><use transform="matrix(0.05,0,0,0.05,12.949999999999998,0)" xlink:href="#aN"/><use transform="matrix(0.05,0,0,0.05,22.95,0)" xlink:href="#ay"/><use transform="matrix(0.05,0,0,0.05,32.95,0)" xlink:href="#aG"/></g><path d="M205 0l-28-72H64L36 0H1l101-248h38L239 0h-34zm-38-99l-47-123c-12 45-31 82-46 123h93" id="aO"/><path d="M115-194c55 1 70 41 70 98S169 2 115 4C84 4 66-9 55-30l1 105H24l-1-265h31l2 30c10-21 28-34 59-34zm-8 174c40 0 45-34 45-75s-6-73-45-74c-42 0-51 32-51 76 0 43 10 73 51 73" id="aP"/><g id="q"><use transform="matrix(0.05,0,0,0.05,0,0)" xlink:href="#aO"/><use transform="matrix(0.05,0,0,0.05,12,0)" xlink:href="#aP"/><use transform="matrix(0.05,0,0,0.05,22,0)" xlink:href="#aP"/></g><path d="M96-169c-40 0-48 33-48 73s9 75 48 75c24 0 41-14 43-38l32 2c-6 37-31 61-74 61-59 0-76-41-82-99-10-93 101-131 147-64 4 7 5 14 7 22l-32 3c-4-21-16-35-41-35" id="aQ"/><path d="M106-169C34-169 62-67 57 0H25v-261h32l-1 103c12-21 28-36 61-36 89 0 53 116 60 194h-32v-121c2-32-8-49-39-48" id="aR"/><g id="r"><use transform="matrix(0.05,0,0,0.05,0,0)" xlink:href="#aB"/><use transform="matrix(0.05,0,0,0.05,9,0)" xlink:href="#aQ"/><use transform="matrix(0.05,0,0,0.05,18,0)" xlink:href="#aD"/><use transform="matrix(0.05,0,0,0.05,23.95,0)" xlink:href="#ay"/><use transform="matrix(0.05,0,0,0.05,33.95,0)" xlink:href="#ay"/><use transform="matrix(0.05,0,0,0.05,43.95,0)" xlink:href="#aH"/><use transform="matrix(0.05,0,0,0.05,53.95,0)" xlink:href="#aB"/><use transform="matrix(0.05,0,0,0.05,62.95,0)" xlink:href="#aR"/><use transform="matrix(0.05,0,0,0.05,72.95,0)" xlink:href="#aG"/><use transform="matrix(0.05,0,0,0.05,82.95,0)" xlink:href="#aC"/><use transform="matrix(0.05,0,0,0.05,87.95,0)" xlink:href="#aB"/></g><g id="s"><use transform="matrix(0.05,0,0,0.05,0,0)" xlink:href="#ax"/><use transform="matrix(0.05,0,0,0.05,12.950000000000001,0)" xlink:href="#ay"/><use transform="matrix(0.05,0,0,0.05,22.950000000000003,0)" xlink:href="#az"/><use transform="matrix(0.05,0,0,0.05,32.95,0)" xlink:href="#aA"/><use transform="matrix(0.05,0,0,0.05,36.900000000000006,0)" xlink:href="#aB"/><use transform="matrix(0.05,0,0,0.05,45.900000000000006,0)" xlink:href="#aC"/><use transform="matrix(0.05,0,0,0.05,50.900000000000006,0)" xlink:href="#ay"/><use transform="matrix(0.05,0,0,0.05,60.900000000000006,0)" xlink:href="#aD"/></g><g id="t"><use transform="matrix(0.05,0,0,0.05,0,0)" xlink:href="#aF"/><use transform="matrix(0.05,0,0,0.05,10,0)" xlink:href="#aG"/><use transform="matrix(0.05,0,0,0.05,20,0)" xlink:href="#az"/><use transform="matrix(0.05,0,0,0.05,30,0)" xlink:href="#aA"/><use transform="matrix(0.05,0,0,0.05,33.95,0)" xlink:href="#aH"/></g><path d="M84 4C-5 8 30-112 23-190h32v120c0 31 7 50 39 49 72-2 45-101 50-169h31l1 190h-30c-1-10 1-25-2-33-11 22-28 36-60 37" id="aS"/><g id="u"><use transform="matrix(0.05,0,0,0.05,0,0)" xlink:href="#aO"/><use transform="matrix(0.05,0,0,0.05,12,0)" xlink:href="#aS"/><use transform="matrix(0.05,0,0,0.05,22,0)" xlink:href="#aC"/><use transform="matrix(0.05,0,0,0.05,27,0)" xlink:href="#aR"/><use transform="matrix(0.05,0,0,0.05,37,0)" xlink:href="#ay"/><use transform="matrix(0.05,0,0,0.05,47,0)" xlink:href="#aH"/><use transform="matrix(0.05,0,0,0.05,57,0)" xlink:href="#aC"/><use transform="matrix(0.05,0,0,0.05,62,0)" xlink:href="#aA"/><use transform="matrix(0.05,0,0,0.05,65.95,0)" xlink:href="#aQ"/><use transform="matrix(0.05,0,0,0.05,74.95,0)" xlink:href="#aK"/><use transform="matrix(0.05,0,0,0.05,84.95,0)" xlink:href="#aC"/><use transform="matrix(0.05,0,0,0.05,89.95,0)" xlink:href="#ay"/></g><path d="M212-179c-10-28-35-45-73-45-59 0-87 40-87 99 0 60 29 101 89 101 43 0 62-24 78-52l27 14C228-24 195 4 139 4 59 4 22-46 18-125c-6-104 99-153 187-111 19 9 31 26 39 46" id="aT"/><g id="v"><use transform="matrix(0.05,0,0,0.05,0,0)" xlink:href="#aO"/><use transform="matrix(0.05,0,0,0.05,12,0)" xlink:href="#aN"/><use transform="matrix(0.05,0,0,0.05,22,0)" xlink:href="#aN"/><use transform="matrix(0.05,0,0,0.05,32,0)" xlink:href="#aE"/><use transform="matrix(0.05,0,0,0.05,37,0)" xlink:href="#aT"/><use transform="matrix(0.05,0,0,0.05,49.95,0)" xlink:href="#aR"/><use transform="matrix(0.05,0,0,0.05,59.95,0)" xlink:href="#aK"/><use transform="matrix(0.05,0,0,0.05,69.95,0)" xlink:href="#aH"/><use transform="matrix(0.05,0,0,0.05,79.95,0)" xlink:href="#az"/><use transform="matrix(0.05,0,0,0.05,89.95,0)" xlink:href="#ay"/></g><path d="M101-234c-31-9-42 10-38 44h38v23H63V0H32v-167H5v-23h27c-7-52 17-82 69-68v24" id="aU"/><g id="w"><use transform="matrix(0.05,0,0,0.05,0,0)" xlink:href="#aP"/><use transform="matrix(0.05,0,0,0.05,10,0)" xlink:href="#aD"/><use transform="matrix(0.05,0,0,0.05,15.949999999999998,0)" xlink:href="#aG"/><use transform="matrix(0.05,0,0,0.05,25.950000000000003,0)" xlink:href="#aU"/><use transform="matrix(0.05,0,0,0.05,30.950000000000003,0)" xlink:href="#aA"/><use transform="matrix(0.05,0,0,0.05,34.9,0)" xlink:href="#aL"/><use transform="matrix(0.05,0,0,0.05,38.85,0)" xlink:href="#ay"/></g><g id="x"><use transform="matrix(0.05,0,0,0.05,0,0)" xlink:href="#aP"/><use transform="matrix(0.05,0,0,0.05,10,0)" xlink:href="#aA"/><use transform="matrix(0.05,0,0,0.05,13.949999999999998,0)" xlink:href="#aQ"/><use transform="matrix(0.05,0,0,0.05,22.95,0)" xlink:href="#aC"/><use transform="matrix(0.05,0,0,0.05,27.950000000000003,0)" xlink:href="#aS"/><use transform="matrix(0.05,0,0,0.05,37.95,0)" xlink:href="#aD"/><use transform="matrix(0.05,0,0,0.05,43.900000000000006,0)" xlink:href="#ay"/></g><path d="M143 0L79-87 56-68V0H24v-261h32v163l83-92h37l-77 82L181 0h-38" id="aV"/><g id="y"><use transform="matrix(0.05,0,0,0.05,0,0)" xlink:href="#aT"/><use transform="matrix(0.05,0,0,0.05,12.950000000000001,0)" xlink:href="#aR"/><use transform="matrix(0.05,0,0,0.05,22.950000000000003,0)" xlink:href="#ay"/><use transform="matrix(0.05,0,0,0.05,32.95,0)" xlink:href="#aQ"/><use transform="matrix(0.05,0,0,0.05,41.95,0)" xlink:href="#aV"/></g><path d="M115-194c53 0 69 39 70 98 0 66-23 100-70 100C84 3 66-7 56-30L54 0H23l1-261h32v101c10-23 28-34 59-34zm-8 174c40 0 45-34 45-75 0-40-5-75-45-74-42 0-51 32-51 76 0 43 10 73 51 73" id="aW"/><g id="z"><use transform="matrix(0.05,0,0,0.05,0,0)" xlink:href="#aW"/><use transform="matrix(0.05,0,0,0.05,10,0)" xlink:href="#aK"/><use transform="matrix(0.05,0,0,0.05,20,0)" xlink:href="#aL"/><use transform="matrix(0.05,0,0,0.05,23.95,0)" xlink:href="#aK"/><use transform="matrix(0.05,0,0,0.05,33.95,0)" xlink:href="#aH"/><use transform="matrix(0.05,0,0,0.05,43.95,0)" xlink:href="#aQ"/><use transform="matrix(0.05,0,0,0.05,52.95,0)" xlink:href="#ay"/></g><g id="A"><use transform="matrix(0.05,0,0,0.05,0,0)" xlink:href="#aA"/><use transform="matrix(0.05,0,0,0.05,3.95,0)" xlink:href="#aH"/><use transform="matrix(0.05,0,0,0.05,13.949999999999998,0)" xlink:href="#aU"/><use transform="matrix(0.05,0,0,0.05,18.95,0)" xlink:href="#aG"/></g><g id="B"><use transform="matrix(0.05,0,0,0.05,0,0)" xlink:href="#aO"/><use transform="matrix(0.05,0,0,0.05,12,0)" xlink:href="#aQ"/><use transform="matrix(0.05,0,0,0.05,21,0)" xlink:href="#aQ"/><use transform="matrix(0.05,0,0,0.05,30,0)" xlink:href="#ay"/><use transform="matrix(0.05,0,0,0.05,40,0)" xlink:href="#aB"/><use transform="matrix(0.05,0,0,0.05,49,0)" xlink:href="#aB"/></g><path d="M185-189c-5-48-123-54-124 2 14 75 158 14 163 119 3 78-121 87-175 55-17-10-28-26-33-46l33-7c5 56 141 63 141-1 0-78-155-14-162-118-5-82 145-84 179-34 5 7 8 16 11 25" id="aX"/><g id="C"><use transform="matrix(0.05,0,0,0.05,0,0)" xlink:href="#aX"/><use transform="matrix(0.05,0,0,0.05,12,0)" xlink:href="#aK"/><use transform="matrix(0.05,0,0,0.05,22,0)" xlink:href="#aM"/><use transform="matrix(0.05,0,0,0.05,31,0)" xlink:href="#aA"/><use transform="matrix(0.05,0,0,0.05,34.95,0)" xlink:href="#aH"/><use transform="matrix(0.05,0,0,0.05,44.95,0)" xlink:href="#az"/><use transform="matrix(0.05,0,0,0.05,54.95,0)" xlink:href="#aB"/></g><g id="D"><use transform="matrix(0.05,0,0,0.05,0,0)" xlink:href="#aA"/><use transform="matrix(0.05,0,0,0.05,3.95,0)" xlink:href="#aH"/><use transform="matrix(0.05,0,0,0.05,13.949999999999998,0)" xlink:href="#aQ"/><use transform="matrix(0.05,0,0,0.05,22.95,0)" xlink:href="#aG"/><use transform="matrix(0.05,0,0,0.05,32.95,0)" xlink:href="#aJ"/><use transform="matrix(0.05,0,0,0.05,47.900000000000006,0)" xlink:href="#ay"/><use transform="matrix(0.05,0,0,0.05,57.900000000000006,0)" xlink:href="#aB"/></g><g id="E"><use transform="matrix(0.05,0,0,0.05,0,0)" xlink:href="#aO"/><use transform="matrix(0.05,0,0,0.05,12,0)" xlink:href="#aQ"/><use transform="matrix(0.05,0,0,0.05,21,0)" xlink:href="#aQ"/><use transform="matrix(0.05,0,0,0.05,30,0)" xlink:href="#aQ"/><use transform="matrix(0.05,0,0,0.05,39,0)" xlink:href="#ay"/><use transform="matrix(0.05,0,0,0.05,49,0)" xlink:href="#aB"/><use transform="matrix(0.05,0,0,0.05,58,0)" xlink:href="#aB"/></g><path d="M141 0L90-78 38 0H4l68-98-65-92h35l48 74 47-74h35l-64 92 68 98h-35" id="aY"/><g id="F"><use transform="matrix(0.05,0,0,0.05,0,0)" xlink:href="#ay"/><use transform="matrix(0.05,0,0,0.05,10,0)" xlink:href="#aY"/><use transform="matrix(0.05,0,0,0.05,19,0)" xlink:href="#aP"/><use transform="matrix(0.05,0,0,0.05,29,0)" xlink:href="#ay"/><use transform="matrix(0.05,0,0,0.05,39,0)" xlink:href="#aH"/><use transform="matrix(0.05,0,0,0.05,49,0)" xlink:href="#aB"/><use transform="matrix(0.05,0,0,0.05,58,0)" xlink:href="#ay"/><use transform="matrix(0.05,0,0,0.05,68,0)" xlink:href="#aB"/></g><g id="G"><use transform="matrix(0.05,0,0,0.05,0,0)" xlink:href="#aO"/><use transform="matrix(0.05,0,0,0.05,12,0)" xlink:href="#aN"/><use transform="matrix(0.05,0,0,0.05,22,0)" xlink:href="#aN"/></g><path d="M179-190L93 31C79 59 56 82 12 73V49c39 6 53-20 64-50L1-190h34L92-34l54-156h33" id="aZ"/><g id="H"><use transform="matrix(0.05,0,0,0.05,0,0)" xlink:href="#aT"/><use transform="matrix(0.05,0,0,0.05,12.950000000000001,0)" xlink:href="#aK"/><use transform="matrix(0.05,0,0,0.05,22.950000000000003,0)" xlink:href="#aC"/><use transform="matrix(0.05,0,0,0.05,27.950000000000003,0)" xlink:href="#ay"/><use transform="matrix(0.05,0,0,0.05,37.95,0)" xlink:href="#az"/><use transform="matrix(0.05,0,0,0.05,47.95,0)" xlink:href="#aG"/><use transform="matrix(0.05,0,0,0.05,57.95,0)" xlink:href="#aD"/><use transform="matrix(0.05,0,0,0.05,63.900000000000006,0)" xlink:href="#aZ"/></g><path d="M240 0l2-218c-23 76-54 145-80 218h-23L58-218 59 0H30v-248h44l77 211c21-75 51-140 76-211h43V0h-30" id="ba"/><g id="I"><use transform="matrix(0.05,0,0,0.05,0,0)" xlink:href="#ba"/><use transform="matrix(0.05,0,0,0.05,14.950000000000001,0)" xlink:href="#aG"/><use transform="matrix(0.05,0,0,0.05,24.950000000000003,0)" xlink:href="#aN"/><use transform="matrix(0.05,0,0,0.05,34.95,0)" xlink:href="#aA"/><use transform="matrix(0.05,0,0,0.05,38.900000000000006,0)" xlink:href="#aU"/><use transform="matrix(0.05,0,0,0.05,43.900000000000006,0)" xlink:href="#aZ"/></g><g id="J"><use transform="matrix(0.05,0,0,0.05,0,0)" xlink:href="#aT"/><use transform="matrix(0.05,0,0,0.05,12.950000000000001,0)" xlink:href="#aD"/><use transform="matrix(0.05,0,0,0.05,18.900000000000002,0)" xlink:href="#ay"/><use transform="matrix(0.05,0,0,0.05,28.900000000000002,0)" xlink:href="#aK"/><use transform="matrix(0.05,0,0,0.05,38.900000000000006,0)" xlink:href="#aC"/><use transform="matrix(0.05,0,0,0.05,43.900000000000006,0)" xlink:href="#ay"/></g><g id="K"><use transform="matrix(0.05,0,0,0.05,0,0)" xlink:href="#aQ"/><use transform="matrix(0.05,0,0,0.05,9,0)" xlink:href="#aK"/><use transform="matrix(0.05,0,0,0.05,19,0)" xlink:href="#aC"/><use transform="matrix(0.05,0,0,0.05,24,0)" xlink:href="#ay"/><use transform="matrix(0.05,0,0,0.05,34,0)" xlink:href="#az"/><use transform="matrix(0.05,0,0,0.05,44,0)" xlink:href="#aG"/><use transform="matrix(0.05,0,0,0.05,54,0)" xlink:href="#aD"/><use transform="matrix(0.05,0,0,0.05,59.95,0)" xlink:href="#aZ"/></g><g id="L"><use transform="matrix(0.05,0,0,0.05,0,0)" xlink:href="#aO"/><use transform="matrix(0.05,0,0,0.05,12,0)" xlink:href="#aQ"/><use transform="matrix(0.05,0,0,0.05,21,0)" xlink:href="#aQ"/><use transform="matrix(0.05,0,0,0.05,30,0)" xlink:href="#ay"/><use transform="matrix(0.05,0,0,0.05,40,0)" xlink:href="#aB"/><use transform="matrix(0.05,0,0,0.05,49,0)" xlink:href="#aB"/></g><path d="M127-220V0H93v-220H8v-28h204v28h-85" id="bb"/><g id="M"><use transform="matrix(0.05,0,0,0.05,0,0)" xlink:href="#bb"/><use transform="matrix(0.05,0,0,0.05,10.3,0)" xlink:href="#aD"/><use transform="matrix(0.05,0,0,0.05,16.25,0)" xlink:href="#aK"/><use transform="matrix(0.05,0,0,0.05,26.25,0)" xlink:href="#aH"/><use transform="matrix(0.05,0,0,0.05,36.25,0)" xlink:href="#aB"/><use transform="matrix(0.05,0,0,0.05,45.25,0)" xlink:href="#aK"/><use transform="matrix(0.05,0,0,0.05,55.25,0)" xlink:href="#aC"/><use transform="matrix(0.05,0,0,0.05,60.25,0)" xlink:href="#aA"/><use transform="matrix(0.05,0,0,0.05,64.2,0)" xlink:href="#aG"/><use transform="matrix(0.05,0,0,0.05,74.2,0)" xlink:href="#aH"/></g><g id="N"><use transform="matrix(0.05,0,0,0.05,0,0)" xlink:href="#aL"/><use transform="matrix(0.05,0,0,0.05,3.95,0)" xlink:href="#aA"/><use transform="matrix(0.05,0,0,0.05,7.9,0)" xlink:href="#aB"/><use transform="matrix(0.05,0,0,0.05,16.9,0)" xlink:href="#aC"/></g><g id="O"><use transform="matrix(0.05,0,0,0.05,0,0)" xlink:href="#aC"/><use transform="matrix(0.05,0,0,0.05,5,0)" xlink:href="#aD"/><use transform="matrix(0.05,0,0,0.05,10.95,0)" xlink:href="#aK"/><use transform="matrix(0.05,0,0,0.05,20.95,0)" xlink:href="#aH"/><use transform="matrix(0.05,0,0,0.05,30.950000000000003,0)" xlink:href="#aB"/><use transform="matrix(0.05,0,0,0.05,39.95,0)" xlink:href="#aK"/><use transform="matrix(0.05,0,0,0.05,49.95,0)" xlink:href="#aQ"/><use transform="matrix(0.05,0,0,0.05,58.95,0)" xlink:href="#aC"/><use transform="matrix(0.05,0,0,0.05,63.95,0)" xlink:href="#aA"/><use transform="matrix(0.05,0,0,0.05,67.9,0)" xlink:href="#aG"/><use transform="matrix(0.05,0,0,0.05,77.9,0)" xlink:href="#aH"/></g><g id="P"><use transform="matrix(0.05,0,0,0.05,0,0)" xlink:href="#ba"/><use transform="matrix(0.05,0,0,0.05,14.950000000000001,0)" xlink:href="#aG"/><use transform="matrix(0.05,0,0,0.05,24.950000000000003,0)" xlink:href="#aN"/><use transform="matrix(0.05,0,0,0.05,34.95,0)" xlink:href="#aA"/><use transform="matrix(0.05,0,0,0.05,38.900000000000006,0)" xlink:href="#aU"/><use transform="matrix(0.05,0,0,0.05,43.900000000000006,0)" xlink:href="#aZ"/></g><path d="M30-248c118-7 216 8 213 122C240-48 200 0 122 0H30v-248zM63-27c89 8 146-16 146-99s-60-101-146-95v194" id="bc"/><g id="Q"><use transform="matrix(0.05,0,0,0.05,0,0)" xlink:href="#bc"/><use transform="matrix(0.05,0,0,0.05,12.950000000000001,0)" xlink:href="#ay"/><use transform="matrix(0.05,0,0,0.05,22.950000000000003,0)" xlink:href="#aL"/><use transform="matrix(0.05,0,0,0.05,26.900000000000002,0)" xlink:href="#ay"/><use transform="matrix(0.05,0,0,0.05,36.900000000000006,0)" xlink:href="#aC"/><use transform="matrix(0.05,0,0,0.05,41.900000000000006,0)" xlink:href="#ay"/></g><g id="R"><use transform="matrix(0.05,0,0,0.05,0,0)" xlink:href="#aO"/><use transform="matrix(0.05,0,0,0.05,12,0)" xlink:href="#aN"/><use transform="matrix(0.05,0,0,0.05,22,0)" xlink:href="#aN"/><use transform="matrix(0.05,0,0,0.05,32,0)" xlink:href="#aE"/><use transform="matrix(0.05,0,0,0.05,37,0)" xlink:href="#aS"/><use transform="matrix(0.05,0,0,0.05,47,0)" xlink:href="#aP"/><use transform="matrix(0.05,0,0,0.05,57,0)" xlink:href="#aN"/><use transform="matrix(0.05,0,0,0.05,67,0)" xlink:href="#aK"/><use transform="matrix(0.05,0,0,0.05,77,0)" xlink:href="#aC"/><use transform="matrix(0.05,0,0,0.05,82,0)" xlink:href="#ay"/></g><g id="S"><use transform="matrix(0.05,0,0,0.05,0,0)" xlink:href="#bb"/><use transform="matrix(0.05,0,0,0.05,10.3,0)" xlink:href="#aD"/><use transform="matrix(0.05,0,0,0.05,16.25,0)" xlink:href="#aK"/><use transform="matrix(0.05,0,0,0.05,26.25,0)" xlink:href="#aH"/><use transform="matrix(0.05,0,0,0.05,36.25,0)" xlink:href="#aB"/><use transform="matrix(0.05,0,0,0.05,45.25,0)" xlink:href="#aK"/><use transform="matrix(0.05,0,0,0.05,55.25,0)" xlink:href="#aQ"/><use transform="matrix(0.05,0,0,0.05,64.25,0)" xlink:href="#aC"/><use transform="matrix(0.05,0,0,0.05,69.25,0)" xlink:href="#aA"/><use transform="matrix(0.05,0,0,0.05,73.2,0)" xlink:href="#aG"/><use transform="matrix(0.05,0,0,0.05,83.2,0)" xlink:href="#aH"/><use transform="matrix(0.05,0,0,0.05,93.2,0)" xlink:href="#aB"/></g></defs></g></svg>